<?xml version="1.0" encoding="utf-8"?>
<!-- Generator: Adobe Illustrator 27.4.1, SVG Export Plug-In . SVG Version: 6.00 Build 0)  -->
<svg version="1.1" id="圖層_1" xmlns="http://www.w3.org/2000/svg" xmlns:xlink="http://www.w3.org/1999/xlink" x="0px" y="0px"
	 viewBox="0 0 400 400" style="enable-background:new 0 0 400 400;" xml:space="preserve">
<style type="text/css">
	.st0{fill:#83FF00;}
</style>
<g>
	<g>
		<path class="st0" d="M86.5,307.58l-11.45,11.35l-3.02,0l-0.49-11.36l-7.8,16.17l-5.97,0l12.82-26.57l5.59,0l1.16,14.14
			l14.61-14.14l5.53,0l-12.82,26.57l-5.97,0L86.5,307.58z"/>
		<path class="st0" d="M99.6,304.79l6.03,0l-9.15,18.96l-6.03,0L99.6,304.79z M103.27,297.18l6.03,0l-1.81,3.74l-6.03,0
			L103.27,297.18z"/>
		<path class="st0" d="M127.41,309.02l-7.11,14.74l-6.03,0l6.44-13.35c0.68-1.41,0.03-2.11-1.93-2.11c-1.92,0-3.5,1.14-3.97,2.11
			l-6.44,13.34l-6.03,0l9.15-18.96l6.03,0l-0.88,1.83c2.01-1.38,4.2-2.07,6.59-2.07c2.43,0,3.94,0.65,4.52,1.95
			C128.18,307.28,127.76,308.31,127.41,309.02z"/>
		<path class="st0" d="M146.15,306.56l0.84-1.75l6.03,0l-9.92,20.55c-0.75,1.55-1.54,2.57-3.13,3.62c-1.97,1.28-5.03,2.59-8.6,2.59
			c-4.89,0-8.15-2.37-6.51-5.78l6.03,0c-0.54,1.13,0.38,1.91,2.03,1.91c1.26,0,2.35-0.36,3.28-1.08c0.3-0.27,0.58-0.69,0.87-1.27
			l1.71-3.55c-1.42,1.02-3.92,2.19-6.65,2.19c-2.27,0-4.19-0.9-4.58-2.03c-0.44-1.28-0.1-1.54,0.48-2.75l5.07-10.52
			c0.7-1.46,1.34-1.82,3.32-3.05c1.22-0.76,2.9-1.13,5.04-1.13C143.93,304.52,145.41,305.39,146.15,306.56z M142.33,308.23
			c-2.5,0-3.57,1.27-4.09,2.35l-3.48,7.21c-0.37,0.77-0.54,1.02-0.05,1.79c0.24,0.37,0.9,0.56,1.99,0.56c1.3,0,2.21-0.23,2.72-0.7
			c0.83-0.74,0.97-0.97,1.3-1.65l3.48-7.21c0.18-0.37,0.29-0.66,0.33-0.88C144.71,308.77,143.59,308.23,142.33,308.23z"/>
		<path class="st0" d="M190.92,299.51c0.93,0.85,0.97,2.17,0.11,3.94l-0.98,2.03c-0.97,2.02-2.92,3.45-5.84,4.3
			c2.06,0.93,2.61,2.4,1.64,4.42l-1.5,3.11c-1.6,3.31-6.72,6.45-13.23,6.45l-9.24,0l12.82-26.57l9.86,0
			C187.68,297.2,189.42,298.15,190.92,299.51z M178.44,317.32l1.5-3.11c0.84-1.75-0.31-2.75-2.82-2.75l-3.39,0l-4.11,8.52l3.46,0
			C175.74,319.99,177.78,318.68,178.44,317.32z M184.34,305.09l0.79-1.63c0.82-1.69-0.43-2.67-2.86-2.67h-3.39l-3.54,7.33l3.58,0
			C182.01,308.12,183.56,306.7,184.34,305.09z"/>
		<path class="st0" d="M191.63,324.02c-2.64,0-4.19-0.75-4.64-2.23c-0.36-0.82,0.08-1.61,0.44-2.35l1.04-2.15
			c0.68-1.41,1.74-2.46,3.18-3.15c1.44-0.69,2.68-1.16,3.7-1.41c1.02-0.25,2.16-0.38,3.42-0.38l4.02,0l0.79-1.63
			c0.38-0.78,0.58-1.08,0-1.83c-0.28-0.37-0.82-0.56-1.62-0.56c-1.95,0-3.45,0.94-4.11,1.87l-5.97,0c1.32-2.73,6.24-5.62,11.63-5.62
			c4.64,0,7.9,2.38,6.34,5.62l-6.55,13.58l-6.03,0l0.92-1.91C196.67,322.93,194.48,324.02,191.63,324.02z M194.52,317.24l-0.46,0.96
			c-0.54,1.12,0.45,1.99,2.12,1.99c2.72,0,3.58-1.57,4.23-2.91l0.88-1.83l-2.26,0C196.63,315.45,195.11,316.01,194.52,317.24z"/>
		<path class="st0" d="M217.97,304.86l5.97,0l-9.13,18.92l-5.97,0L217.97,304.86z M216.59,296.77l5.21,0l-2.13,4.42l-5.22,0
			L216.59,296.77z M227.9,296.77l5.21,0l-2.13,4.42l-5.21,0L227.9,296.77z"/>
		<path class="st0" d="M242.14,323.79l12.82-26.57l5.97,0l-10.97,22.75l11.87,0l-1.84,3.82L242.14,323.79z"/>
		<path class="st0" d="M270.9,324.03c-2.64,0-4.19-0.75-4.64-2.23c-0.36-0.82,0.08-1.61,0.44-2.35l1.04-2.15
			c0.68-1.41,1.74-2.46,3.18-3.15c1.44-0.69,2.68-1.16,3.7-1.41c1.02-0.25,2.16-0.38,3.42-0.38l4.02,0l0.79-1.63
			c0.38-0.78,0.58-1.08,0-1.83c-0.28-0.37-0.82-0.56-1.62-0.56c-1.95,0-3.45,0.94-4.11,1.87l-5.97,0c1.32-2.73,6.24-5.62,11.63-5.62
			c4.64,0,7.9,2.38,6.34,5.62l-6.55,13.58l-6.03,0l0.92-1.91C275.94,322.95,273.75,324.03,270.9,324.03z M273.79,317.26l-0.46,0.96
			c-0.54,1.12,0.45,1.99,2.12,1.99c2.72,0,3.58-1.57,4.23-2.91l0.88-1.83l-2.26,0C275.91,315.47,274.39,316.03,273.79,317.26z"/>
		<path class="st0" d="M290.09,319.93c0.04-0.64,0.21-1.29,0.53-1.95l10.01-20.75l6.03,0l-4.55,9.44c2.01-1.38,4.2-2.07,6.59-2.07
			c2.47,0,3.89,0.41,4.25,1.22c0.61,1.37,0.5,2.09-0.02,3.17l-4.52,9.36c-0.8,1.57-2.37,2.91-4.71,4.02
			c-2.34,1.12-4.74,1.67-7.21,1.67C292.66,324.04,289.96,322.37,290.09,319.93z M300.29,310.45l-3.63,7.53
			c-0.67,1.39-0.23,2.23,1.94,2.23c1.96,0,3.42-1.1,3.91-2.11l3.69-7.65c0.6-1.25-0.2-2.11-2-2.11
			C302.33,308.34,300.75,309.5,300.29,310.45z"/>
	</g>
	<g>
		<path class="st0" d="M66.49,116.88c0,0.04,0,0.12,0,0.12c0,0.88-0.57,1.12-2.86,1.12c-1.43,0-1.72-0.12-1.72-0.8
			c0,0,0-0.08,0-0.12c0.16-6.91,0.2-8.99,0.2-16.3c0-4.98-0.04-7.75-0.2-11.04c2.17,1,2.78,1.32,4.78,2.53h4.78
			c0.94-1.04,1.23-1.37,2.17-2.41c1.51,1.04,1.96,1.41,3.31,2.45c0.37,0.28,0.49,0.44,0.49,0.64c0,0.32-0.37,0.6-1.43,1.17
			c0,16.46,0.04,17.86,0.12,21.68c0,0.32-0.04,0.48-0.12,0.6c-0.29,0.36-1.18,0.52-2.74,0.52c-1.39,0-1.55-0.08-1.59-0.72v-2.13
			h-5.19V116.88z M71.68,93.24h-5.19v9.11h5.19V93.24z M66.49,103.19v10.16h5.19v-10.16H66.49z M83.65,110.74
			c-0.61,3.49-1.68,5.94-3.64,8.35c-2.25,2.73-4.82,4.58-9.36,6.79l-0.29-0.4c2.94-2.33,4.25-3.65,5.6-5.7
			c2.08-2.97,3.02-5.98,3.43-10.52c0.25-2.61,0.33-6.06,0.33-11.2c0-4.42-0.04-6.06-0.29-9.07c2.37,0.96,3.06,1.33,5.31,2.49h6.91
			c0.94-1.04,1.27-1.37,2.25-2.41c1.55,1.08,2,1.45,3.47,2.49c0.41,0.32,0.57,0.52,0.57,0.72c0,0.36-0.37,0.68-1.47,1.29v18.79
			l0.12,8.35c-0.04,1.41-0.04,1.41-0.12,1.73c-0.37,1.45-1.51,2.37-3.56,2.81c-0.57,0.16-1.92,0.32-2.37,0.32
			c-0.57,0-0.57,0-0.78-1.12c-0.16-0.84-0.82-1.73-1.72-2.21c-0.9-0.44-1.63-0.68-4.21-1.33l0.04-0.52c3.68,0.24,4.66,0.32,7.23,0.4
			c0.04,0,0.16,0,0.21,0c0.49,0,0.61-0.16,0.61-0.76v-9.27H83.65z M84.22,101.35c-0.08,3.61-0.25,6.87-0.45,8.55h8.17v-8.55H84.22z
			 M91.95,100.5v-8.19H84.3v2.65c0,0.28,0,1.36-0.04,2.77c0,0.6-0.04,1.57-0.04,2.77H91.95z"/>
		<path class="st0" d="M89,136.91c1.1-1.16,1.43-1.53,2.49-2.61c1.63,1.12,2.12,1.49,3.68,2.61c0.33,0.28,0.45,0.48,0.45,0.64
			c0,0.36-0.41,0.68-1.59,1.25c-0.04,3.33-0.04,6.46-0.04,8.15c0,4.9,0,5.22,0.16,11.68l0.12,6.1c-0.04,0.92-0.49,1.04-3.27,1.04
			c-1.47,0-1.68-0.08-1.72-0.72v-2.65H70.04v2.45c0,0.88-0.49,1.04-2.94,1.04c-1.8,0-2.04-0.12-2.04-0.88
			c0.33-13.25,0.33-13.25,0.33-15.82c0-6.66-0.12-12.49-0.33-15.05c2.49,1.12,3.23,1.49,5.6,2.77h3.72
			c1.02-3.25,1.43-5.22,1.63-8.07c1.51,0.32,2.66,0.56,3.43,0.72c3.43,0.72,4.09,0.96,4.09,1.44c0,0.44-0.53,0.64-2.21,0.8
			c-2,2.21-2.7,2.89-5.23,5.1H89z M89.29,148.43v-10.68H70.04v10.68H89.29z M70.04,149.27v12.29h19.25v-12.29H70.04z"/>
		<path class="st0" d="M91.25,172.99c1.02-1.04,1.35-1.37,2.33-2.29c1.88,1.29,2.45,1.69,4.29,3.09c0.33,0.24,0.41,0.4,0.41,0.6
			c0,0.52-0.61,0.72-2.57,0.72c-0.74,0.36-1.23,0.6-1.63,0.8c-0.65,0.32-0.98,0.48-2,0.96c0.2,0.16,0.25,0.28,0.25,0.44
			c0,0.16-0.12,0.32-0.33,0.44c-0.57,0.32-0.57,0.32-0.78,0.48c-0.12,1-0.2,1.65-0.25,1.93h1.39c1.1-1.16,1.47-1.53,2.57-2.61
			c1.67,1.24,2.17,1.65,3.72,2.97c0.12,0.12,0.16,0.2,0.16,0.28c0,0.12-0.12,0.2-0.37,0.2h-7.6c-0.33,2.93-0.33,2.93-0.53,4.18
			c-0.04,0.4-0.12,0.52-0.49,0.68c1.27,0.76,1.47,0.92,2.66,1.73c0.45,0.32,0.61,0.52,0.61,0.68c0,0.32-0.2,0.48-1.31,1.08
			c-0.04,1.65-0.04,2.49-0.04,3.25c0,1.29,0,1.37,0.16,6.7c0,0.08,0,0.16,0,0.24c0,0.68-0.9,0.96-3.31,0.96
			c-0.74,0-0.98-0.12-1.02-0.56v-0.48H71.19v0.4c-0.04,0.32-0.12,0.48-0.45,0.56c-0.33,0.12-1.72,0.24-2.57,0.24
			c-1.02,0-1.35-0.2-1.35-0.8c0.25-4.66,0.25-4.98,0.25-7.11c0-2.57-0.08-6.06-0.12-7.07c2.04,0.72,2.66,0.96,4.66,1.89h15.69
			c0.86-0.8,1.18-1.04,1.76-1.53c-0.61,0.08-1.23,0.12-2.21,0.12c-0.61,0-0.9-0.16-0.9-0.52c0-0.08,0-0.12,0.04-0.24l0.04-0.32
			H71.39l-0.08,0.36c-0.2,0.36-0.49,0.44-1.35,0.44c-2.04,0-2.86-0.16-2.86-0.6c0-0.08,0-0.16,0.04-0.24
			c0.53-2.05,0.65-2.57,0.98-4.05h-2.9c-1.02,0-1.63,0.04-2.74,0.28l-0.37-1.49c1.1,0.24,1.96,0.36,3.11,0.36h3.07
			c0.41-2.21,0.53-3.21,0.65-5.62c1.92,0.68,2.53,0.92,4.54,1.77h13.48c0.82-0.76,1.06-1,1.88-1.65c1.19,0.76,1.19,0.76,2.33,1.57
			c0.29-0.96,0.37-1.28,0.61-2.41H67.06c-0.08,1.37-0.2,1.97-0.49,2.77c-0.61,1.65-2,2.89-3.23,2.89c-1.19,0-2.12-1.08-2.12-2.45
			c0-0.52,0.16-1.04,0.45-1.33c0.2-0.2,0.2-0.2,1.31-0.76c1.76-0.88,2.41-1.77,2.98-4.3h0.53c0.33,1.16,0.41,1.53,0.49,2.33h9.81
			v-1.33c0-1.24-0.04-1.77-0.29-2.89c6.66,0.56,6.66,0.56,6.66,1.08c0,0.36-0.41,0.6-1.68,0.92v2.21H91.25z M61.5,206.11
			c4.82-1.73,8.46-3.77,10.83-6.1c1.1,0.4,1.92,0.72,2.45,0.96c0.94,0.4,1.59,0.64,1.84,0.76c0.69,0.24,1.06,0.48,1.06,0.72
			c0,0.28-0.53,0.52-1.23,0.52c-0.08,0-0.08,0-1.02-0.04c-4.49,2.21-6.29,2.65-13.77,3.61L61.5,206.11z M87.57,188.45H71.19v2.77
			h16.39V188.45z M71.19,192.06v2.69h16.39v-2.69H71.19z M71.19,195.6v3.05h16.39v-3.05H71.19z M76.7,184.27
			c0.41-2.13,0.41-2.13,0.57-3.25h-5.07c-0.25,1.49-0.25,1.49-0.65,3.25H76.7z M77.4,180.18c0.16-1.28,0.2-1.53,0.33-3.01h-4.9
			c-0.2,1.49-0.25,1.85-0.45,3.01H77.4z M81.24,181.02c-0.25,1.65-0.25,1.65-0.49,3.25h5.39l0.33-2.17
			c0.08-0.68,0.08-0.68,0.16-1.08H81.24z M86.76,180.18c0.25-1.77,0.25-1.77,0.37-3.01h-5.35c-0.2,1.37-0.2,1.37-0.41,3.01H86.76z
			 M82.06,200.61c4.66,0.28,6.05,0.4,9.03,0.92c1.55,0.24,2.53,0.64,2.98,1.21c0.45,0.48,0.69,1.2,0.69,1.97
			c0,1.2-0.61,2.13-1.39,2.13c-0.41,0-0.82-0.2-1.51-0.68c-3.39-2.45-5.93-3.73-9.85-5.14L82.06,200.61z"/>
		<path class="st0" d="M62.61,232.76c0.45,1.37,0.57,2.29,0.57,3.81c0,1.69-0.29,3.09-0.82,4.01c-0.41,0.8-1.06,1.37-1.55,1.37
			c-0.69,0-1.35-1.16-1.35-2.41c0-0.76,0.12-1.04,0.9-1.81c1.27-1.29,1.84-2.73,1.84-4.98H62.61z M71.92,217.51
			c0.82-0.92,1.06-1.24,1.84-2.17c1.14,1.04,1.47,1.36,2.53,2.49c0.08,0.12,0.16,0.28,0.16,0.28c0,0.12-0.16,0.24-0.29,0.24h-4.66
			v4.9h0.25c0.78-1,1.02-1.33,1.76-2.25c1.14,1,1.47,1.33,2.49,2.49c0.12,0.12,0.16,0.24,0.16,0.32c0,0.2-0.16,0.28-0.57,0.28h-4.09
			v5.46h0.53c0.82-0.88,1.06-1.16,1.84-1.97c1.06,0.84,1.35,1.08,2.33,2.01c0.25,0.24,0.37,0.44,0.37,0.6c0,0.28-0.16,0.44-1.1,1.08
			c-0.29,3.65-0.45,5.74-0.53,6.34c-0.57,4.38-1.14,6.06-2.45,7.31c-0.78,0.72-2.29,1.29-3.43,1.29c-0.57,0-0.61-0.04-0.78-0.96
			c-0.12-0.6-0.61-1.45-1.06-1.81c-0.57-0.52-1.31-0.8-3.15-1.24v-0.44c2.62,0.28,3.96,0.4,4.7,0.4c1.31,0,1.72-0.24,2-1.25
			c0.33-1.04,0.57-3.21,0.78-5.94c-0.29,0.64-0.53,0.88-0.86,0.88c-0.33,0-0.53-0.24-0.69-0.92c-0.29-1.04-0.9-2.17-1.67-3.09
			l0.2-0.28c1.88,0.76,2.74,1.36,3.06,2.25c0.16-2.33,0.16-2.33,0.2-3.41h-6.25v1c0,0.2-0.04,0.28-0.16,0.36
			c-0.25,0.2-1.19,0.36-1.96,0.36c-1.27,0-1.59-0.16-1.63-0.88c0.12-4.09,0.12-4.98,0.12-11.4c0-6.22-0.04-8.83-0.16-10.4
			c1.88,0.96,2.45,1.29,4.21,2.37h5.68c1.14-1.16,1.51-1.53,2.53-2.61c1.51,1.24,1.96,1.65,3.39,2.97c0.08,0.08,0.16,0.16,0.16,0.2
			c-0.04,0.24-0.08,0.28-0.37,0.28h-5.84v4.86H71.92z M64.2,232.72c0.29,0.4,0.29,0.4,0.98,1.41c0.9,1.32,1.39,2.53,1.39,3.53
			c0,1.29-0.9,2.61-1.76,2.61c-0.29,0-0.49-0.32-0.49-0.76c0,0,0-0.08,0-0.16c0.08-0.88,0.12-1.65,0.12-2.21
			c0-1.61-0.12-2.69-0.53-4.3L64.2,232.72z M68.12,212.65h-2.57v4.86h2.57V212.65z M65.55,218.35v4.9h2.57v-4.9H65.55z
			 M65.55,224.09v5.46h2.57v-5.46H65.55z M66.49,232.12c2.04,1.77,3.06,3.21,3.06,4.38c0,0.96-0.78,2.21-1.39,2.21
			c-0.25,0-0.41-0.24-0.45-0.76c-0.29-2.33-0.69-3.85-1.59-5.62L66.49,232.12z M73.72,245.85c2.21-2.77,3.51-5.02,4.7-8.07
			c0.69-1.73,1.02-2.89,1.27-4.42c2.66,0.56,4.66,1.04,5.19,1.28c0.29,0.12,0.37,0.24,0.37,0.4c0,0.4-0.45,0.64-1.68,0.84
			c-0.45,0.84-0.53,1.04-1.1,1.85c0.82,0.24,1.35,0.44,1.68,0.56c1.14,0.44,1.76,1.12,1.76,1.97c0,1.08-0.98,2.37-1.88,2.37
			c-0.33,0-0.57-0.32-0.61-0.88c-0.12-1.36-0.53-2.45-1.31-3.45c-2.12,3.29-4.05,5.18-8.01,7.95L73.72,245.85z M99.42,217.63
			c-1.27,0.88-2.04,1.85-2.37,3.09c-0.12,0.52-0.25,0.68-0.45,0.68c-0.37,0-2.37-1.28-3.64-2.29c-2.25-1.81-3.72-3.69-5.56-7.03
			c-2.53,3.13-4.09,4.7-6.54,6.54c-2,1.53-3.43,2.41-5.6,3.49l-0.33-0.4c3.15-2.93,5.56-5.98,7.36-9.31
			c0.78-1.45,1.02-2.05,1.31-3.17c2.17,0.4,4.82,1.08,5.48,1.33c0.33,0.12,0.45,0.28,0.45,0.44c0,0.36-0.37,0.52-1.55,0.72
			c1.96,1.93,3.31,2.89,5.39,3.77c2.12,0.88,3.6,1.28,6.05,1.61V217.63z M82.26,223.81c0.78-0.84,1.02-1.12,1.76-1.85
			c1.1,0.72,1.43,0.96,2.45,1.85c0.33,0.24,0.41,0.4,0.41,0.56c0,0.24-0.25,0.44-1.02,0.84v3.49c0,1.61,0,2.17,0.04,3.65
			c0,0.4-0.04,0.52-0.29,0.64c-0.33,0.16-1.43,0.32-2.21,0.32c-0.61,0-0.86-0.16-0.86-0.52v-1.08h-2.66v0.92c0,0.08,0,0.12,0,0.12
			c0,0.16-0.04,0.28-0.12,0.32c-0.25,0.2-1.1,0.36-2,0.36c-0.86,0-1.06-0.12-1.1-0.68c0.08-3.45,0.08-4.34,0.08-7.07l-0.04-2.33
			c0-0.56,0-0.56-0.04-1.4c1.51,0.76,1.96,1.04,3.35,1.85H82.26z M79.89,224.65v6.22h2.66v-6.22H79.89z M87,219.4
			c0.69-0.8,1.35-1.57,2-2.33c1.51,1.08,1.92,1.45,3.35,2.61c0.12,0.16,0.16,0.24,0.16,0.32c0,0.12-0.16,0.24-0.41,0.24h-8.95
			c-0.7,0-1.23,0.04-2.21,0.12l-0.25-1.2c0.9,0.2,1.47,0.24,2.45,0.24H87z M82.59,246.05c2.49-3.01,3.76-5.06,5.03-8.11
			c0.74-1.89,1.1-2.93,1.35-4.42c4.62,1.04,5.52,1.33,5.52,1.81c0,0.4-0.37,0.52-1.76,0.72c-0.61,1.2-0.82,1.61-1.35,2.41
			c1.51,0.4,2.45,0.72,3.84,1.28c2.04,0.84,2.98,1.77,2.98,3.01c0,1.49-1.14,3.25-2.08,3.25c-0.2,0-0.49-0.12-0.61-0.28
			c-0.25-0.2-0.25-0.2-0.78-1.36c-1.06-2.29-2.37-4.1-3.8-5.3c-1.76,2.61-4.13,4.78-8.01,7.31L82.59,246.05z M93.29,223.81
			c0.82-0.84,1.06-1.08,1.88-1.85c1.14,0.76,1.47,1,2.53,1.85c0.33,0.28,0.45,0.4,0.45,0.56c0,0.16-0.08,0.28-0.45,0.56
			c-0.08,0.04-0.16,0.12-0.29,0.2c-0.04,0.04-0.16,0.12-0.29,0.2c0,2.25,0,4.66,0.04,7.15c0,0.28-0.08,0.44-0.29,0.52
			c-0.45,0.16-1.39,0.28-2.25,0.28c-0.65,0-0.82-0.12-0.86-0.56v-1h-3.02v0.8c0,0.2-0.04,0.28-0.12,0.36
			c-0.25,0.2-0.98,0.32-1.63,0.32c-0.2,0-0.37,0-0.49,0c-0.86,0-1.06-0.16-1.06-0.68c0-0.64,0-0.96,0-1.2v-2.05l0.04-4.62
			c0-0.84,0-1.41-0.04-2.69c1.51,0.76,1.96,1.04,3.47,1.85H93.29z M90.76,224.65v6.22h3.02v-6.22H90.76z"/>
		<path class="st0" d="M67.35,270.37c-0.2,2.41-0.61,4.54-1.23,6.46c-1.19,3.49-2.74,5.86-6.01,9.11l-0.37-0.32
			c1.8-3.73,2.49-5.98,2.98-9.76c0.37-2.85,0.53-6.62,0.53-11.72c0-2.93-0.04-4.7-0.16-7.55c2.17,1.08,2.82,1.45,4.94,2.61h4.7
			c0.86-1.08,1.14-1.41,2.08-2.45c1.47,1,1.92,1.33,3.27,2.33c0.33,0.28,0.45,0.44,0.45,0.64c0,0.32-0.25,0.52-1.23,1.04
			c0,0.88,0,0.88,0,1.81c0,2.45,0.04,5.7,0.16,9.35c0,0.36-0.08,0.56-0.29,0.72c-0.41,0.28-1.39,0.44-2.62,0.44
			c-1.14,0-1.39-0.16-1.43-0.88v-1.85H67.35z M61.05,252.27c1.06,0.24,1.88,0.32,3.11,0.32h8.75c1.19-1.41,1.55-1.81,2.74-3.17
			c1.84,1.37,2.37,1.81,4.09,3.37c0.12,0.2,0.2,0.28,0.2,0.36c0,0.16-0.16,0.28-0.45,0.28H64.16c-1.18,0-2,0.08-2.86,0.24
			L61.05,252.27z M73.15,260.06h-5.48c-0.04,4.78-0.12,7.03-0.29,9.47h5.76V260.06z M84.71,264.07c-0.04,1-0.12,2.21-0.25,3.57
			c-0.45,4.58-1.14,7.07-2.66,9.67c-1.96,3.41-4.7,5.74-9.93,8.55l-0.29-0.44c3.68-3.25,5.52-5.74,6.87-9.15
			c1.55-3.93,1.96-7.87,1.96-18.67c0-2.57-0.04-3.41-0.16-5.46c2.17,1.04,2.78,1.41,4.82,2.69c2.12-1,3.76-1.93,5.52-3.17
			c1.27-0.88,1.76-1.32,2.78-2.45c4.37,2.93,4.99,3.37,4.99,3.85c0,0.24-0.29,0.44-0.65,0.44c-0.45,0-0.94-0.04-1.47-0.16
			c-3.96,1.28-7.27,2.05-11.4,2.65c0,3.05-0.04,4.13-0.12,7.23h7.72l2.86-3.13c1.84,1.45,2.37,1.89,4,3.41
			c0.16,0.16,0.2,0.24,0.2,0.32c0,0.16-0.16,0.24-0.49,0.24h-5.72v9.76c0,3.41,0.04,6.78,0.16,10.64c0,0.56-0.16,0.8-0.61,0.96
			c-0.33,0.12-1.92,0.28-2.86,0.28c-0.82,0-1.14-0.24-1.19-0.88c0.08-2.01,0.08-2.01,0.16-10.52v-10.24H84.71z"/>
	</g>
	<g>
		<path class="st0" d="M199.5,258.15c-3.59-0.29-15.51-1.53-17.94-5.52c-1.43-2.35-0.09-5.84,1.33-9.54c0.7-1.81,2-5.19,1.64-6.03
			c-0.93-0.94-6.67,0.81-9.75,1.74c-5.64,1.71-10.96,3.33-13.71,0.79c-2.7-2.49-1.28-7.3,0.22-12.4c0.76-2.59,2.19-7.43,1.35-8.34
			c-0.92-0.57-5.59,0.28-8.1,0.74c-4.77,0.87-8.22,1.5-9.92-0.26c-0.41-0.43-1.06-1.37-0.73-2.86l3.91,0.86
			c0.06-0.32-0.23-0.84-0.53-0.95c0.85,0.32,4.28-0.31,6.56-0.72c5.2-0.95,9.7-1.77,11.77,0.5c2.36,2.58,0.98,7.24-0.47,12.17
			c-0.72,2.44-2.22,7.52-1.34,8.33c1.07,0.99,6.56-0.68,9.84-1.68c5.74-1.75,11.15-3.39,13.84-0.63c2.21,2.28,0.74,6.12-0.83,10.18
			c-0.7,1.82-2,5.2-1.64,6.04c0.82,1.35,7.76,3.04,14.83,3.6L199.5,258.15z M145.84,216.91l1.95,0.43c0,0,0,0,0,0L145.84,216.91z"/>
	</g>
	<g>
		<path class="st0" d="M235.93,245.65c-3.18-0.51-19.23-3.29-22.85-8.46c-1.96-2.8-1.01-7.12,0-11.7c0.7-3.18,1.66-7.53,0.51-8.67
			c-1.88-1.87-7.65-0.4-12.74,0.89c-6.61,1.68-12.85,3.26-16.4,0.02c-3.34-3.05-2.56-9.02-1.72-15.34
			c0.62-4.7,1.32-10.03-0.37-11.79c-1.27-1.33-7-0.65-10.79-0.21c-5.36,0.63-9.6,1.13-11.72-0.87c-0.57-0.54-1.23-1.49-1.14-3
			l3.98,0.23c-0.02-0.06-0.06-0.12-0.1-0.15c0.9,0.71,5.67,0.15,8.51-0.19c5.91-0.7,11.5-1.35,14.15,1.41
			c3.02,3.15,2.26,8.95,1.45,15.08c-0.63,4.79-1.35,10.21,0.46,11.86c1.96,1.79,7.68,0.34,12.72-0.94
			c6.71-1.7,13.05-3.31,16.54,0.15c2.71,2.7,1.63,7.61,0.57,12.37c-0.71,3.2-1.59,7.18-0.63,8.54c1.95,2.78,12.99,5.65,20.21,6.8
			L235.93,245.65z"/>
	</g>
	<g>
		<path class="st0" d="M262.93,221.55c-1.63-0.59-16.1-5.95-20.45-10.74c-2.22-2.44-2.82-6.02-3.41-9.47
			c-0.52-3.06-1.05-6.22-2.69-7.71c-2.37-2.15-6.16-1.95-10.17-1.75c-4.58,0.24-9.33,0.49-12.94-2.64
			c-3.27-2.84-4.54-7.83-5.76-12.65c-1.05-4.14-2.13-8.42-4.36-10.5c-1.72-1.6-5.63-2-9.09-2.34c-4.7-0.47-9.57-0.96-10.78-4.73
			l3.81-1.22c0.41,1.27,4.43,1.68,7.37,1.97c4.28,0.43,8.71,0.87,11.42,3.4c3.09,2.88,4.32,7.74,5.51,12.44
			c1.07,4.23,2.18,8.6,4.51,10.62c2.39,2.07,6.14,1.88,10.11,1.67c4.44-0.23,9.47-0.5,13.07,2.78c2.66,2.42,3.31,6.27,3.94,10
			c0.49,2.89,1,5.87,2.43,7.45c3.12,3.44,14.67,8.14,18.85,9.67L262.93,221.55z"/>
	</g>
	<polygon class="st0" points="361.03,337.35 42.4,337.35 42.4,57.93 33.57,54.03 33.57,337.35 33.57,345.97 42.4,345.97 
		366.43,345.97 	"/>
	<polygon class="st0" points="323.04,276.71 124.63,276.71 124.63,94.18 115.69,90.24 115.69,276.71 115.69,284.99 115.69,285.68 
		328.66,285.68 	"/>
</g>
</svg>
