<?xml version="1.0" encoding="utf-8"?>
<!-- Generator: Adobe Illustrator 27.4.1, SVG Export Plug-In . SVG Version: 6.00 Build 0)  -->
<svg version="1.1" id="font" xmlns="http://www.w3.org/2000/svg" xmlns:xlink="http://www.w3.org/1999/xlink" x="0px" y="0px"
	 viewBox="0 0 221.93 47.25" style="enable-background:new 0 0 221.93 47.25;" xml:space="preserve">
<g >
	<path class="fontlogo" d="M24,22.22l-9.56,11.97h-2.52l-0.41-11.97L4.99,39.27H0l10.71-28.02h4.67l0.97,14.91l12.21-14.91h4.62
		L22.47,39.27h-4.99L24,22.22z"/>
	<path class="fontlogo" d="M36.71,19.28h5.04L34.1,39.27h-5.04L36.71,19.28z M39.77,11.25h5.04L43.3,15.2h-5.04L39.77,11.25z"/>
	<path class="fontlogo" d="M61.71,23.73l-5.94,15.54h-5.04l5.38-14.07c0.57-1.48,0.03-2.23-1.62-2.23c-1.61,0-2.93,1.2-3.32,2.23
		L45.8,39.27h-5.04l7.64-19.99h5.04l-0.74,1.93c1.68-1.46,3.51-2.18,5.51-2.18c2.03,0,3.29,0.69,3.78,2.06
		C62.35,21.89,62,22.98,61.71,23.73z"/>
	<path class="fontlogo" d="M79.13,21.13l0.71-1.85h5.04l-8.28,21.68c-0.62,1.63-1.29,2.71-2.62,3.82c-1.64,1.35-4.21,2.73-7.19,2.73
		c-4.08,0-6.82-2.5-5.44-6.09h5.04c-0.45,1.19,0.32,2.02,1.7,2.02c1.05,0,1.96-0.38,2.74-1.13c0.25-0.28,0.49-0.73,0.72-1.34
		l1.43-3.74c-1.19,1.07-3.28,2.31-5.56,2.31c-1.89,0-3.5-0.95-3.83-2.14c-0.37-1.35-0.09-1.62,0.4-2.9l4.24-11.09
		c0.59-1.54,1.12-1.92,2.78-3.21c1.02-0.8,2.43-1.2,4.21-1.2C77.27,18.98,78.52,19.9,79.13,21.13z M75.94,22.89
		c-2.09,0-2.98,1.34-3.42,2.48l-2.91,7.6c-0.31,0.81-0.45,1.08-0.04,1.89c0.2,0.39,0.75,0.59,1.67,0.59c1.08,0,1.84-0.25,2.28-0.74
		c0.69-0.78,0.81-1.02,1.09-1.74l2.91-7.6c0.15-0.39,0.24-0.7,0.27-0.92C77.93,23.47,76.99,22.89,75.94,22.89z"/>
	<path class="fontlogo" d="M108.14,13.69c0.78,0.9,0.81,2.28,0.09,4.16l-0.82,2.14c-0.81,2.13-2.44,3.64-4.88,4.54
		c1.73,0.98,2.18,2.54,1.37,4.66l-1.25,3.28c-1.33,3.49-5.61,6.81-11.05,6.81h-7.72l10.71-28.02h8.24
		C105.43,11.25,106.89,12.25,108.14,13.69z M97.71,32.47l1.25-3.28c0.7-1.84-0.26-2.9-2.36-2.9h-2.83l-3.44,8.99h2.89
		C95.45,35.28,97.16,33.9,97.71,32.47z M102.63,19.57l0.66-1.72c0.68-1.79-0.36-2.81-2.39-2.81h-2.84l-2.95,7.73h2.99
		C100.69,22.76,101.98,21.27,102.63,19.57z"/>
	<path class="fontlogo" d="M110.49,39.52c-2.21,0-3.5-0.78-3.88-2.35c-0.3-0.87,0.07-1.69,0.37-2.48l0.87-2.27
		c0.57-1.48,1.45-2.59,2.66-3.32c1.21-0.73,2.24-1.22,3.09-1.49c0.85-0.27,1.81-0.4,2.86-0.4h3.36l0.66-1.72
		c0.31-0.82,0.48-1.14,0-1.93c-0.24-0.39-0.69-0.59-1.35-0.59c-1.63,0-2.88,1-3.43,1.97h-4.99c1.1-2.88,5.21-5.92,9.72-5.92
		c3.88,0,6.6,2.51,5.3,5.92l-5.47,14.32h-5.04l0.77-2.02C114.7,38.38,112.87,39.52,110.49,39.52z M112.91,32.38l-0.38,1.01
		c-0.45,1.18,0.38,2.1,1.77,2.1c2.28,0,3-1.66,3.54-3.07l0.74-1.93h-1.89C114.67,30.49,113.4,31.09,112.91,32.38z"/>
	<path class="fontlogo" d="M134.26,19.32h4.99l-7.62,19.95h-4.99L134.26,19.32z M133.11,10.79h4.36l-1.78,4.66h-4.36L133.11,10.79z
		 M142.56,10.79h4.36l-1.78,4.66h-4.36L142.56,10.79z"/>
	<path class="fontlogo" d="M157.99,39.27l10.71-28.02h4.99l-9.17,23.98h9.92l-1.54,4.03H157.99z"/>
	<path class="fontlogo" d="M183.78,39.52c-2.21,0-3.5-0.78-3.88-2.35c-0.3-0.87,0.07-1.69,0.37-2.48l0.87-2.27
		c0.57-1.48,1.45-2.59,2.66-3.32c1.21-0.73,2.24-1.22,3.09-1.49c0.85-0.27,1.81-0.4,2.86-0.4h3.36l0.66-1.72
		c0.31-0.82,0.48-1.14,0-1.93c-0.24-0.39-0.69-0.59-1.35-0.59c-1.63,0-2.88,1-3.43,1.97H184c1.1-2.88,5.21-5.92,9.72-5.92
		c3.88,0,6.6,2.51,5.3,5.92l-5.47,14.32h-5.04l0.77-2.02C187.99,38.38,186.16,39.52,183.78,39.52z M186.2,32.38l-0.38,1.01
		c-0.45,1.18,0.38,2.1,1.77,2.1c2.28,0,3-1.66,3.54-3.07l0.74-1.93h-1.89C187.96,30.49,186.69,31.09,186.2,32.38z"/>
	<path class="fontlogo" d="M201.58,35.2c0.03-0.67,0.18-1.36,0.45-2.06l8.36-21.89h5.04l-3.8,9.96c1.68-1.46,3.51-2.18,5.51-2.18
		c2.07,0,3.25,0.43,3.55,1.28c0.51,1.44,0.42,2.2-0.02,3.34l-3.77,9.87c-0.67,1.65-1.98,3.07-3.93,4.24
		c-1.96,1.18-3.96,1.76-6.03,1.76C203.72,39.52,201.46,37.77,201.58,35.2z M210.1,25.2l-3.03,7.94c-0.56,1.46-0.19,2.35,1.62,2.35
		c1.64,0,2.86-1.17,3.27-2.23l3.08-8.07c0.5-1.32-0.17-2.23-1.67-2.23C211.8,22.97,210.48,24.2,210.1,25.2z"/>
</g>
</svg>
