<?xml version="1.0" encoding="UTF-8"?>
<svg id="font" xmlns="http://www.w3.org/2000/svg" viewBox="0 0 221.04 36.72">
  <g>
    <path d="m24,11.43l-9.56,11.97h-2.52l-.41-11.97-6.52,17.05H0L10.71.46h4.67l.97,14.91L28.56.46h4.62l-10.71,28.02h-4.99l6.52-17.05Z"/>
    <path d="m36.71,8.49h5.04l-7.65,19.99h-5.04l7.65-19.99ZM39.77.46h5.04l-1.51,3.95h-5.04l1.51-3.95Z"/>
    <path d="m61.71,12.94l-5.94,15.54h-5.04l5.38-14.07c.57-1.48.03-2.23-1.62-2.23s-2.93,1.2-3.32,2.23l-5.37,14.07h-5.04l7.64-19.99h5.04l-.74,1.93c1.68-1.46,3.51-2.18,5.51-2.18s3.29.69,3.78,2.06c.36.8.01,1.89-.28,2.64Z"/>
    <path d="m79.13,10.34l.71-1.85h5.04l-8.28,21.68c-.62,1.63-1.29,2.71-2.62,3.82-1.64,1.35-4.21,2.73-7.19,2.73-4.08,0-6.82-2.5-5.44-6.09h5.04c-.45,1.19.32,2.02,1.7,2.02,1.05,0,1.96-.38,2.74-1.13.25-.28.49-.73.72-1.34l1.43-3.74c-1.19,1.07-3.28,2.31-5.56,2.31-1.89,0-3.5-.95-3.83-2.14-.37-1.35-.09-1.62.4-2.9l4.24-11.09c.59-1.54,1.12-1.92,2.78-3.21,1.02-.8,2.43-1.2,4.21-1.2,2.05-.02,3.3.9,3.91,2.13Zm-3.19,1.76c-2.09,0-2.98,1.34-3.42,2.48l-2.91,7.6c-.31.81-.45,1.08-.04,1.89.2.39.75.59,1.67.59,1.08,0,1.84-.25,2.28-.74.69-.78.81-1.02,1.09-1.74l2.91-7.6c.15-.39.24-.7.27-.92.14-.98-.8-1.56-1.85-1.56Z"/>
  </g>
  <g>
    <path d="m115.17,2.9c.78.9.81,2.28.09,4.16l-.82,2.14c-.81,2.13-2.44,3.64-4.88,4.54,1.73.98,2.18,2.54,1.37,4.66l-1.25,3.28c-1.33,3.49-5.61,6.81-11.05,6.81h-7.72L101.62.47h8.24c2.6,0,4.06.99,5.31,2.43Zm-10.43,18.78l1.25-3.28c.7-1.84-.26-2.9-2.36-2.9h-2.83l-3.44,8.99h2.89c2.23,0,3.94-1.38,4.49-2.81Zm4.92-12.9l.66-1.72c.68-1.79-.36-2.81-2.39-2.81h-2.84l-2.95,7.73h2.99c2.59-.01,3.88-1.5,4.53-3.2Z"/>
    <path d="m117.52,28.73c-2.21,0-3.5-.78-3.88-2.35-.3-.87.07-1.69.37-2.48l.87-2.27c.57-1.48,1.45-2.59,2.66-3.32,1.21-.73,2.24-1.22,3.09-1.49s1.81-.4,2.86-.4h3.36l.66-1.72c.31-.82.48-1.14,0-1.93-.24-.39-.69-.59-1.35-.59-1.63,0-2.88,1-3.43,1.97h-4.99c1.1-2.88,5.21-5.92,9.72-5.92,3.88,0,6.6,2.51,5.3,5.92l-5.47,14.32h-5.04l.77-2.02c-1.29,1.14-3.12,2.28-5.5,2.28Zm2.42-7.14l-.38,1.01c-.45,1.18.38,2.1,1.77,2.1,2.28,0,3-1.66,3.54-3.07l.74-1.93h-1.89c-2.02,0-3.29.6-3.78,1.89Z"/>
    <path d="m141.29,8.53h4.99l-7.62,19.95h-4.99l7.62-19.95Zm-1.15-8.53h4.36l-1.78,4.66h-4.36l1.78-4.66Zm9.45,0h4.36l-1.78,4.66h-4.36l1.78-4.66Z"/>
  </g>
  <g>
    <path d="m157.99,28.48L168.7.46h4.99l-9.17,23.98h9.92l-1.54,4.03h-14.91Z"/>
    <path d="m183.78,28.73c-2.21,0-3.5-.78-3.88-2.35-.3-.87.07-1.69.37-2.48l.87-2.27c.57-1.48,1.45-2.59,2.66-3.32s2.24-1.22,3.09-1.49c.85-.27,1.81-.4,2.86-.4h3.36l.66-1.72c.31-.82.48-1.14,0-1.93-.24-.39-.69-.59-1.35-.59-1.63,0-2.88,1-3.43,1.97h-4.99c1.1-2.88,5.21-5.92,9.72-5.92,3.88,0,6.6,2.51,5.3,5.92l-5.47,14.32h-5.04l.77-2.02c-1.29,1.14-3.12,2.28-5.5,2.28Zm2.42-7.14l-.38,1.01c-.45,1.18.38,2.1,1.77,2.1,2.28,0,3-1.66,3.54-3.07l.74-1.93h-1.89c-2.02,0-3.29.6-3.78,1.89Z"/>
    <path d="m201.58,24.41c.03-.67.18-1.36.45-2.06L210.39.46h5.04l-3.8,9.96c1.68-1.46,3.51-2.18,5.51-2.18s3.25.43,3.55,1.28c.51,1.44.42,2.2-.02,3.34l-3.77,9.87c-.67,1.65-1.98,3.07-3.93,4.24-1.96,1.18-3.96,1.76-6.03,1.76-3.22,0-5.48-1.75-5.36-4.32Zm8.52-10l-3.03,7.94c-.56,1.46-.19,2.35,1.62,2.35,1.64,0,2.86-1.17,3.27-2.23l3.08-8.07c.5-1.32-.17-2.23-1.67-2.23-1.57.01-2.89,1.24-3.27,2.24Z"/>
  </g>
</svg>