<?xml version="1.0" encoding="utf-8"?>
<!-- Generator: Adobe Illustrator 27.5.0, SVG Export Plug-In . SVG Version: 6.00 Build 0)  -->
<svg version="1.1" id="font" xmlns="http://www.w3.org/2000/svg" xmlns:xlink="http://www.w3.org/1999/xlink" x="0px" y="0px"
	 viewBox="0 0 221.9 47.2" style="enable-background:new 0 0 221.9 47.2;" xml:space="preserve">
<g>
	<g>
		<path d="M24,22.2l-9.6,12h-2.5l-0.4-12L5,39.3H0l10.7-28h4.7l1,14.9l12.2-14.9h4.6l-10.7,28h-5L24,22.2z"/>
		<path d="M36.7,19.3h5l-7.7,20h-5L36.7,19.3z M39.8,11.2h5l-1.5,3.9h-5L39.8,11.2z"/>
		<path d="M61.7,23.7l-5.9,15.5h-5l5.4-14.1c0.6-1.5,0-2.2-1.6-2.2c-1.6,0-2.9,1.2-3.3,2.2l-5.4,14.1h-5l7.6-20h5l-0.7,1.9
			c1.7-1.5,3.5-2.2,5.5-2.2c2,0,3.3,0.7,3.8,2.1C62.3,21.9,62,23,61.7,23.7z"/>
		<path d="M79.1,21.1l0.7-1.9h5L76.6,41c-0.6,1.6-1.3,2.7-2.6,3.8c-1.6,1.3-4.2,2.7-7.2,2.7c-4.1,0-6.8-2.5-5.4-6.1h5
			c-0.4,1.2,0.3,2,1.7,2c1.1,0,2-0.4,2.7-1.1c0.2-0.3,0.5-0.7,0.7-1.3l1.4-3.7c-1.2,1.1-3.3,2.3-5.6,2.3c-1.9,0-3.5-1-3.8-2.1
			c-0.4-1.3-0.1-1.6,0.4-2.9l4.2-11.1c0.6-1.5,1.1-1.9,2.8-3.2c1-0.8,2.4-1.2,4.2-1.2C77.3,19,78.5,19.9,79.1,21.1z M75.9,22.9
			c-2.1,0-3,1.3-3.4,2.5L69.6,33c-0.3,0.8-0.4,1.1,0,1.9c0.2,0.4,0.8,0.6,1.7,0.6c1.1,0,1.8-0.2,2.3-0.7c0.7-0.8,0.8-1,1.1-1.7
			l2.9-7.6c0.2-0.4,0.2-0.7,0.3-0.9C77.9,23.5,77,22.9,75.9,22.9z"/>
	</g>
	<g>
		<path d="M115.2,13.7c0.8,0.9,0.8,2.3,0.1,4.2l-0.8,2.1c-0.8,2.1-2.4,3.6-4.9,4.5c1.7,1,2.2,2.5,1.4,4.7l-1.2,3.3
			c-1.3,3.5-5.6,6.8-11.1,6.8h-7.7l10.7-28h8.2C112.5,11.2,113.9,12.2,115.2,13.7z M104.7,32.5l1.2-3.3c0.7-1.8-0.3-2.9-2.4-2.9
			h-2.8l-3.4,9h2.9C102.5,35.3,104.2,33.9,104.7,32.5z M109.7,19.6l0.7-1.7c0.7-1.8-0.4-2.8-2.4-2.8h-2.8l-2.9,7.7h3
			C107.7,22.8,109,21.3,109.7,19.6z"/>
		<path d="M117.5,39.5c-2.2,0-3.5-0.8-3.9-2.3c-0.3-0.9,0.1-1.7,0.4-2.5l0.9-2.3c0.6-1.5,1.4-2.6,2.7-3.3c1.2-0.7,2.2-1.2,3.1-1.5
			s1.8-0.4,2.9-0.4h3.4l0.7-1.7c0.3-0.8,0.5-1.1,0-1.9c-0.2-0.4-0.7-0.6-1.3-0.6c-1.6,0-2.9,1-3.4,2h-5c1.1-2.9,5.2-5.9,9.7-5.9
			c3.9,0,6.6,2.5,5.3,5.9l-5.5,14.3h-5l0.8-2C121.7,38.4,119.9,39.5,117.5,39.5z M119.9,32.4l-0.4,1c-0.4,1.2,0.4,2.1,1.8,2.1
			c2.3,0,3-1.7,3.5-3.1l0.7-1.9h-1.9C121.7,30.5,120.4,31.1,119.9,32.4z"/>
		<path d="M141.3,19.3h5l-7.6,20h-5L141.3,19.3z M140.1,10.8h4.4l-1.8,4.7h-4.4L140.1,10.8z M149.6,10.8h4.4l-1.8,4.7h-4.4
			L149.6,10.8z"/>
	</g>
	<g>
		<path d="M158,39.3l10.7-28h5l-9.2,24h9.9l-1.5,4L158,39.3L158,39.3z"/>
		<path d="M183.8,39.5c-2.2,0-3.5-0.8-3.9-2.3c-0.3-0.9,0.1-1.7,0.4-2.5l0.9-2.3c0.6-1.5,1.4-2.6,2.7-3.3s2.2-1.2,3.1-1.5
			c0.9-0.3,1.8-0.4,2.9-0.4h3.4l0.7-1.7c0.3-0.8,0.5-1.1,0-1.9c-0.2-0.4-0.7-0.6-1.4-0.6c-1.6,0-2.9,1-3.4,2h-5
			c1.1-2.9,5.2-5.9,9.7-5.9c3.9,0,6.6,2.5,5.3,5.9l-5.5,14.3h-5l0.8-2C188,38.4,186.2,39.5,183.8,39.5z M186.2,32.4l-0.4,1
			c-0.4,1.2,0.4,2.1,1.8,2.1c2.3,0,3-1.7,3.5-3.1l0.7-1.9H190C188,30.5,186.7,31.1,186.2,32.4z"/>
		<path d="M201.6,35.2c0-0.7,0.2-1.4,0.4-2.1l8.4-21.9h5l-3.8,10c1.7-1.5,3.5-2.2,5.5-2.2c2.1,0,3.2,0.4,3.6,1.3
			c0.5,1.4,0.4,2.2,0,3.3l-3.8,9.9c-0.7,1.7-2,3.1-3.9,4.2c-2,1.2-4,1.8-6,1.8C203.7,39.5,201.5,37.8,201.6,35.2z M210.1,25.2
			l-3,7.9c-0.6,1.5-0.2,2.3,1.6,2.3c1.6,0,2.9-1.2,3.3-2.2l3.1-8.1c0.5-1.3-0.2-2.2-1.7-2.2C211.8,23,210.5,24.2,210.1,25.2z"/>
	</g>
</g>
</svg>
