<?xml version="1.0" encoding="UTF-8"?>
<svg id="layerA" xmlns="http://www.w3.org/2000/svg" viewBox="0 0 30 30">
  
  <path class="socialMediaColor" d="m19.46,3.69c-.11,0-.22.02-.32.02-.98,0-1.96,0-2.94,0-.06,0-.12-.01-.18-.02,1.15,0,2.3,0,3.45,0Z"/>
  <path class="socialMediaColor" d="m16.25,11.14h3.47c-.07.71-.13,1.41-.2,2.11-.04.46-.08.93-.11,1.39-.02.27-.02.28-.3.29-.91,0-1.81,0-2.72,0-.05,0-.09,0-.16,0,0,.05,0,.1,0,.15,0,1.19,0,2.38,0,3.58,0,2.45-.02,4.89-.04,7.34,0,.32,0,.32-.32.32-1.36,0-2.72,0-4.08,0-.04,0-.08,0-.13,0,0-.05,0-.08,0-.12,0-3.2,0-6.4-.01-9.61,0-.5,0-1,0-1.5,0-.08-.04-.08-.1-.08-.31,0-.62,0-.93,0-.41,0-.81,0-1.22,0-.1,0-.13-.03-.13-.13,0-1.21,0-2.43,0-3.64,0-.1.04-.12.12-.12.74,0,1.48,0,2.24,0,0-.03.01-.07.01-.11,0-1.12,0-2.24.03-3.36.03-.91.28-1.76.88-2.48.52-.63,1.2-1,1.99-1.18.42-.09.85-.18,1.27-.21.61-.04,1.23-.02,1.85-.02.63,0,1.26,0,1.89-.01.13,0,.16.04.16.15,0,1.02.01,2.04.02,3.06,0,.21,0,.41.01.62,0,.1-.04.12-.13.12-.86,0-1.71,0-2.57.02-.08,0-.16,0-.24.03-.24.05-.42.17-.47.43-.04.23-.08.47-.09.71-.01.73,0,1.45,0,2.18,0,.02,0,.03.01.07Z"/>
</svg>