<?xml version="1.0" encoding="UTF-8"?>
<svg id="layerA" xmlns="http://www.w3.org/2000/svg" viewBox="0 0 30 30">
  <path class="socialMediaColor" d="m18.55,15c0,1.96-1.59,3.55-3.55,3.55s-3.55-1.59-3.55-3.55,1.59-3.55,3.55-3.55c1.96,0,3.55,1.59,3.55,3.55Zm7.55-4.88v9.76c0,3.43-2.78,6.21-6.21,6.21h-9.76c-3.43,0-6.21-2.78-6.21-6.21v-9.76c0-3.43,2.78-6.21,6.21-6.21h9.76c3.43,0,6.21,2.78,6.21,6.21Zm-5.77,4.88c0-2.94-2.38-5.33-5.33-5.33s-5.33,2.38-5.33,5.33,2.38,5.33,5.33,5.33c2.94,0,5.32-2.39,5.33-5.33Zm1.78-5.77c0-.74-.6-1.33-1.33-1.33s-1.33.6-1.33,1.33.6,1.33,1.33,1.33,1.33-.6,1.33-1.33Z"/>
</svg>