<?xml version="1.0" encoding="UTF-8"?>
<svg id="layerA" xmlns="http://www.w3.org/2000/svg" viewBox="0 0 30 30">\
  <path class="socialMediaColor" d="m25.52,9.89c-.1,2.14-1.6,5.07-4.5,8.8-3,3.89-5.54,5.83-7.61,5.83-1.28,0-2.37-1.19-3.26-3.56l-1.78-6.52c-.66-2.37-1.37-3.56-2.13-3.56-.16,0-.74.35-1.73,1.04l-1.04-1.33c1.08-.95,2.15-1.9,3.21-2.87,1.45-1.25,2.54-1.91,3.26-1.98,1.71-.16,2.77,1,3.16,3.51.43,2.7.73,4.38.89,5.04.49,2.24,1.04,3.36,1.63,3.36.46,0,1.15-.73,2.08-2.17.92-1.45,1.42-2.55,1.48-3.31.13-1.25-.36-1.88-1.48-1.88-.53,0-1.07.12-1.63.35,1.09-3.53,3.16-5.24,6.23-5.14,2.27.07,3.34,1.53,3.21,4.4h0Z"/>
</svg>